<svg width="64" height="64" viewBox="0 0 64 64" fill="none" xmlns="http://www.w3.org/2000/svg">
  <circle cx="32" cy="32" r="28" fill="#FFFAF0" stroke="#151A1F" stroke-width="5"/>
  <path d="M32 32L49 13A26 26 0 0 1 57 32H32Z" fill="#EF6B5B"/>
  <path d="M32 32H58A26 26 0 0 1 44 55L32 32Z" fill="#F3B33F"/>
  <path d="M32 32L44 55A26 26 0 0 1 12 48L32 32Z" fill="#49B79D"/>
  <path d="M32 32L12 48A26 26 0 0 1 15 12L32 32Z" fill="#1F77B4"/>
  <path d="M32 32L15 12A26 26 0 0 1 49 13L32 32Z" fill="#65406F"/>
  <path d="M32 32L38 10" stroke="#151A1F" stroke-width="5" stroke-linecap="round"/>
  <circle cx="32" cy="32" r="8" fill="#FFFAF0" stroke="#151A1F" stroke-width="4"/>
</svg>
